<svg aria-hidden="true" style="position: absolute; width: 0; height: 0; overflow: hidden;" version="1.1" xmlns="http://www.w3.org/2000/svg" xmlns:xlink="http://www.w3.org/1999/xlink">
<defs>
<symbol id="icon-astronaut" viewBox="0 0 32 32">
<path d="M29.935 13.626c-0.321-0.432-0.802-0.73-1.353-0.807l-0.011-0.001c-0.088-0.013-0.189-0.021-0.291-0.021-0.471 0-0.905 0.16-1.25 0.428l0.005-0.003-1.438 1.101-2.178 1.626-1.558-0.621c2.778-1.246 4.72-4.026 4.72-7.252 0-4.387-3.583-7.956-7.988-7.956s-7.988 3.57-7.988 7.957c0 1.59 0.476 3.069 1.285 4.313l-3.177-0.028c-0.010 0-0.018 0.005-0.027 0.005-0.065 0.003-0.126 0.016-0.182 0.038l0.004-0.001c-0.015 0.005-0.030 0.008-0.044 0.015-0.007 0.003-0.015 0.004-0.022 0.007l-3.71 1.831c-0.001 0-0.002 0-0.002 0.001l-2.172 1.044c-0.028 0.013-0.052 0.026-0.074 0.041l0.002-0.001c-0.553 0.371-0.912 0.995-0.912 1.702 0 0.341 0.083 0.662 0.231 0.944l-0.005-0.011c0.252 0.486 0.68 0.852 1.197 1.016l0.014 0.004c0.184 0.061 0.396 0.095 0.617 0.095 0.354 0 0.686-0.090 0.976-0.248l-0.011 0.005 1.593-0.847 2.598-1.342 1.557-0.009-6.245 6.214c0 0.001-0.001 0.001-0.002 0.002l-1.536 1.53c-0.348 0.343-0.563 0.82-0.563 1.347 0 0.002 0 0.004 0 0.006v-0c0.002 1.055 0.858 1.91 1.913 1.91 0.001 0 0.002 0 0.003 0h-0c0.491 0 0.98-0.186 1.354-0.557l1.508-1.502 1.998-1.491 1.033 1.029-3.559 3.544c-0.348 0.343-0.563 0.82-0.563 1.347 0 0.002 0 0.003 0 0.005v-0c0 0.51 0.199 0.991 0.563 1.353 0.346 0.344 0.823 0.557 1.35 0.557 0.001 0 0.003 0 0.004 0h-0c0.491 0 0.981-0.186 1.354-0.557l5.15-5.132c0.008-0.007 0.018-0.010 0.026-0.018l5.928-6.493 3.983 0.567c0.029 0.004 0.058 0.006 0.087 0.006 0.073 0 0.145-0.018 0.215-0.044 0.020-0.007 0.037-0.017 0.057-0.027 0.022-0.011 0.045-0.017 0.066-0.031l3.687-2.448c0.014-0.009 0.021-0.024 0.034-0.034 0.015-0.012 0.033-0.016 0.047-0.029l1.458-1.367c0.399-0.374 0.647-0.904 0.647-1.492 0-0.459-0.152-0.883-0.407-1.224l0.004 0.005zM4.018 17.769c-0.113 0.062-0.247 0.099-0.39 0.099-0.090 0-0.176-0.014-0.257-0.041l0.006 0.002c-0.338-0.107-0.578-0.418-0.578-0.784 0-0.27 0.131-0.51 0.332-0.659l0.002-0.002 1.508-0.726 0.363 1.061 0.152 0.446-1.138 0.605zM8.031 15.672l-1.777 0.918-0.293-0.857-0.211-0.616 2.326-1.148-0.046 1.703zM25.359 8.075c0 1.054-0.252 2.048-0.687 2.937l-4.798-2.18c-0.050-0.66-0.393-1.231-0.898-1.588l-0.007-0.004 1.68-5.578c2.728 0.868 4.71 3.413 4.71 6.413zM11.831 8.075c0-3.712 3.034-6.733 6.764-6.733 0.29 0 0.574 0.025 0.855 0.060l-1.644 5.454c-0.022 0-0.043-0.006-0.066-0.006-0 0-0.001 0-0.001 0-1.184 0-2.144 0.958-2.148 2.142v0c0.004 1.184 0.964 2.142 2.148 2.142 0 0 0 0 0.001 0h-0c0.797 0 1.486-0.44 1.857-1.084l4.433 2.013c-1.234 1.66-3.207 2.743-5.436 2.743-3.73 0-6.764-3.021-6.764-6.733zM18.666 8.993c0 0.506-0.415 0.918-0.925 0.918-0 0-0.001 0-0.002 0-0.508 0-0.92-0.41-0.923-0.918v-0c0-0.506 0.414-0.918 0.924-0.918s0.925 0.412 0.925 0.918zM4.402 26.233c-0.126 0.125-0.3 0.202-0.491 0.202s-0.364-0.077-0.49-0.201l0 0c-0.125-0.124-0.202-0.295-0.202-0.484s0.077-0.361 0.202-0.484l0-0 1.104-1.1 0.978 0.973-1.1 1.095zM8.090 30.517c-0.126 0.125-0.3 0.202-0.491 0.202s-0.364-0.077-0.49-0.201l0 0c-0.125-0.124-0.202-0.295-0.202-0.484s0.077-0.361 0.202-0.484l0-0 1.105-1.101 0.977 0.973-1.101 1.096zM12.085 26.537l-0.002 0.002-2.025 2.020-0.978-0.973 2.025-2.016c0.046-0.046 0.075-0.101 0.103-0.156 0.008-0.016 0.023-0.029 0.030-0.046 0.019-0.047 0.022-0.098 0.029-0.147 0.004-0.028 0.016-0.055 0.016-0.084 0-0.040-0.015-0.080-0.023-0.121-0.007-0.037-0.007-0.074-0.021-0.11-0.028-0.061-0.063-0.113-0.105-0.158l0 0c-0.012-0.014-0.016-0.030-0.028-0.044h-0.001s0-0.002-0.001-0.003l-1.844-1.836c-0.019-0.019-0.045-0.027-0.067-0.044-0.029-0.024-0.062-0.046-0.097-0.065l-0.003-0.002c-0.030-0.014-0.066-0.027-0.103-0.036l-0.004-0.001c-0.034-0.011-0.075-0.019-0.116-0.023l-0.002-0c-0.008-0-0.017-0.001-0.026-0.001-0.029 0-0.058 0.002-0.087 0.006l0.003-0c-0.041 0.005-0.079 0.011-0.119 0.024-0.039 0.012-0.073 0.031-0.108 0.051-0.023 0.013-0.049 0.017-0.070 0.033l-2.035 1.519-1.033-1.030 2.753-2.738 5.004 4.922-1.064 1.054zM19.91 18.485c-0.018-0.003-0.035 0.004-0.052 0.003-0.009-0-0.020-0.001-0.031-0.001-0.036 0-0.071 0.003-0.105 0.009l0.004-0.001c-0.080 0.013-0.151 0.040-0.214 0.080l0.002-0.001c-0.034 0.021-0.065 0.043-0.095 0.070-0.015 0.013-0.033 0.019-0.046 0.034l-5.391 5.905-4.967-4.884 3.251-3.234c0.111-0.111 0.179-0.264 0.179-0.433 0-0.338-0.274-0.613-0.613-0.613-0.001 0-0.001 0-0.002 0h0l-2.546 0.015 0.032-1.844 3.562 0.030c1.45 1.488 3.474 2.411 5.713 2.411 0.001 0 0.003 0 0.004 0h-0c0.502 0 0.991-0.052 1.468-0.141 0.046 0.037 0.091 0.073 0.148 0.097l2.766 1.102 0.175 0.87 0.205 1.016-3.446-0.491zM24.548 18.69l-0.359-1.788 1.66-1.24 1.086 1.442-2.387 1.585zM28.855 15.441l-0.961 0.901-1.069-1.418 0.954-0.731c0.178-0.137 0.403-0.193 0.623-0.164 0.221 0.031 0.418 0.147 0.551 0.326 0.101 0.135 0.162 0.304 0.162 0.489 0 0.236-0.1 0.448-0.259 0.598l-0 0z"></path>
</symbol>
<symbol id="icon-facebook" viewBox="0 0 32 32">
<path fill="#afb1b8" style="fill: var(--color1, #afb1b8)" d="M20.528 5.312h2.923v-5.088c-1.232-0.143-2.661-0.224-4.108-0.224-0.052 0-0.104 0-0.156 0l0.008-0c-4.213 0-7.099 2.65-7.099 7.52v4.48h-4.646v5.688h4.646v14.312h5.698v-14.31h4.462l0.707-5.69h-5.168v-3.92c0-1.643 0.443-2.768 2.734-2.768z"></path>
</symbol>
<symbol id="icon-instagram" viewBox="0 0 32 32">
<path fill="#afb1b8" style="fill: var(--color1, #afb1b8)" d="M31.968 9.408c-0.074-1.701-0.349-2.869-0.742-3.882-0.424-1.111-1.054-2.059-1.85-2.837l-0.001-0.001c-0.78-0.792-1.724-1.419-2.778-1.827l-0.054-0.018c-1.019-0.394-2.181-0.667-3.882-0.742-1.712-0.082-2.256-0.101-6.602-0.101-4.344 0-4.888 0.019-6.595 0.094-1.699 0.074-2.869 0.349-3.88 0.742-1.112 0.424-2.060 1.054-2.839 1.85l-0.001 0.001c-0.791 0.78-1.418 1.724-1.825 2.778l-0.018 0.054c-0.395 1.019-0.669 2.181-0.744 3.882-0.082 1.712-0.101 2.256-0.101 6.602 0 4.344 0.019 4.888 0.094 6.595 0.075 1.701 0.35 2.869 0.744 3.882 0.426 1.11 1.055 2.057 1.849 2.837l0.001 0.001c0.8 0.813 1.77 1.443 2.832 1.843 1.019 0.395 2.182 0.67 3.882 0.744 1.707 0.075 2.251 0.094 6.595 0.094 4.346 0 4.89-0.019 6.595-0.094 1.701-0.074 2.869-0.349 3.882-0.742 2.157-0.85 3.833-2.526 4.664-4.628l0.019-0.055c0.394-1.019 0.669-2.182 0.744-3.882 0.075-1.707 0.093-2.251 0.093-6.595s-0.006-4.888-0.080-6.595zM29.088 22.474c-0.070 1.563-0.333 2.406-0.55 2.97-0.552 1.399-1.64 2.486-3.004 3.024l-0.036 0.012c-0.56 0.219-1.411 0.482-2.968 0.55-1.688 0.075-2.194 0.094-6.464 0.094-4.269 0-4.782-0.019-6.464-0.094-1.563-0.069-2.406-0.331-2.97-0.55-0.721-0.269-1.334-0.676-1.836-1.192l-0.001-0.001c-0.517-0.503-0.924-1.117-1.184-1.803l-0.011-0.034c-0.218-0.563-0.48-1.413-0.549-2.97-0.075-1.688-0.094-2.195-0.094-6.464 0-4.27 0.019-4.784 0.094-6.464 0.069-1.563 0.331-2.406 0.549-2.97 0.269-0.722 0.678-1.337 1.198-1.837l0.002-0.002c0.504-0.517 1.119-0.923 1.806-1.182l0.034-0.011c0.56-0.219 1.411-0.48 2.968-0.55 1.688-0.074 2.195-0.093 6.464-0.093 4.275 0 4.782 0.019 6.464 0.093 1.563 0.069 2.406 0.331 2.97 0.55 0.693 0.256 1.325 0.662 1.837 1.194 0.531 0.52 0.938 1.144 1.195 1.84 0.218 0.56 0.48 1.411 0.549 2.968 0.075 1.688 0.094 2.194 0.094 6.464 0 4.269-0.019 4.768-0.094 6.458z"></path>
<path fill="#afb1b8" style="fill: var(--color1, #afb1b8)" d="M16.059 7.782c-4.539 0.002-8.218 3.682-8.219 8.221v0c0.091 4.471 3.737 8.060 8.221 8.060s8.13-3.589 8.221-8.052l0-0.009c-0.001-4.54-3.681-8.22-8.221-8.221h-0zM16.059 21.334c-2.945-0-5.332-2.388-5.332-5.333s2.388-5.333 5.333-5.333c0 0 0.001 0 0.001 0h-0c2.946 0 5.334 2.388 5.334 5.334s-2.388 5.334-5.334 5.334v0zM26.525 7.458c0 1.060-0.86 1.92-1.92 1.92s-1.92-0.86-1.92-1.92v0c0-1.060 0.86-1.92 1.92-1.92s1.92 0.86 1.92 1.92v0z"></path>
</symbol>
<symbol id="icon-laptop" viewBox="0 0 32 32">
<path d="M1.599 28.291h25.586c0 0 0 0 0 0 0.883 0 1.599-0.716 1.599-1.599v0-2.132c0-0.883-0.716-1.599-1.599-1.599v0h-0.533v-13.294l3.028-2.868c0.207 0.104 0.452 0.166 0.711 0.166 0.888 0 1.608-0.72 1.608-1.608s-0.72-1.608-1.608-1.608c-0.888 0-1.608 0.72-1.608 1.608 0 0.247 0.056 0.481 0.155 0.69l-0.004-0.010-2.281 2.162v-1.23c0-0.883-0.716-1.599-1.599-1.599v0h-21.323c-0.883 0-1.599 0.716-1.599 1.599v15.992h-0.533c-0.883 0-1.599 0.716-1.599 1.599v0 2.132c0 0.883 0.716 1.599 1.599 1.599v0zM30.384 4.837c0.294 0 0.533 0.239 0.533 0.533s-0.239 0.533-0.533 0.533v0c-0.294 0-0.533-0.239-0.533-0.533s0.239-0.533 0.533-0.533v0zM3.198 6.969c0-0.294 0.239-0.533 0.533-0.533h21.323c0.294 0 0.533 0.239 0.533 0.533v2.239l-1.066 1.013v-2.185c0-0.295-0.239-0.534-0.534-0.534h-19.189c-0.294 0-0.534 0.239-0.534 0.533v13.327c0 0.294 0.239 0.533 0.534 0.533h19.189c0.295 0 0.534-0.239 0.534-0.533v-9.675l1.066-1.010v12.283h-22.389v-15.99zM7.996 13.899c-0.001 0-0.003 0-0.005 0-0.883 0-1.599 0.716-1.599 1.599s0.716 1.599 1.599 1.599c0.432 0 0.824-0.172 1.112-0.45l-0 0 1.853 0.93c0.215 0.107 0.476 0.057 0.636-0.123l3.939-4.431 3.872 2.902c0.208 0.155 0.498 0.139 0.686-0.039l3.365-3.188v8.131h-18.123v-12.261h18.123v2.661l-3.771 3.572-3.904-2.927c-0.088-0.067-0.2-0.107-0.32-0.107-0.158 0-0.3 0.069-0.398 0.178l-0 0.001-3.993 4.493-1.493-0.746c0.011-0.064 0.017-0.128 0.020-0.193 0-0.883-0.716-1.599-1.599-1.599v0zM8.529 15.498c0 0.294-0.239 0.533-0.533 0.533s-0.533-0.239-0.533-0.533v0c0-0.294 0.239-0.533 0.533-0.533s0.533 0.239 0.533 0.533v0zM11.727 24.026h5.33v0.533c0 0.294-0.238 0.533-0.533 0.533h-4.265c-0.294 0-0.533-0.239-0.533-0.533v0-0.533zM1.067 24.56c0-0.294 0.238-0.533 0.533-0.533h9.062v0.533c0 0.883 0.716 1.599 1.599 1.599v0h4.265c0.883 0 1.599-0.716 1.599-1.599v0-0.533h9.062c0.294 0 0.533 0.239 0.533 0.533v2.132c0 0.294-0.239 0.533-0.533 0.533h-25.586c-0 0-0 0-0 0-0.294 0-0.533-0.239-0.533-0.533 0 0 0 0 0 0v0-2.132z"></path>
</symbol>
<symbol id="icon-linkedin" viewBox="0 0 32 32">
<path fill="#afb1b8" style="fill: var(--color1, #afb1b8)" d="M31.992 32h0.008v-11.738c0-5.741-1.237-10.163-7.947-10.163-3.227 0-5.392 1.77-6.277 3.45h-0.093v-2.914h-6.365v21.363h6.627v-10.578c0-2.786 0.528-5.48 3.978-5.48 3.398 0 3.448 3.179 3.448 5.658v10.402h6.621zM0.528 10.635h6.635v21.365h-6.635v-21.365zM3.843 0c-2.123 0-3.843 1.721-3.843 3.843v0c0 2.12 1.722 3.878 3.843 3.878 2.12 0 3.842-1.757 3.842-3.878s-1.72-3.841-3.841-3.843h-0z"></path>
</symbol>
<symbol id="icon-mail" viewBox="0 0 32 32">
<path   d="M29 4h-26c-1.654 0-3 1.346-3 3v18c0 1.654 1.346 3 3 3h26c1.654 0 3-1.346 3-3v-18c0-1.654-1.346-3-3-3zM29 6c0.136 0 0.266 0.028 0.384 0.078l-13.384 11.6-13.384-11.6c0.113-0.049 0.245-0.078 0.384-0.078h26zM29 26h-26c-0.552 0-1-0.448-1-1v0-16.81l13.344 11.566c0.175 0.152 0.404 0.245 0.656 0.245s0.481-0.093 0.657-0.246l-0.001 0.001 13.344-11.566v16.81c0 0.552-0.448 1-1 1v0z"></path>
</symbol>
<symbol id="icon-phone" viewBox="0 0 32 32">
<path fill="#757575" style="fill: var(--color3, #757575)" d="M23 0h-14c-1.654 0-3 1.346-3 3v26c0 1.654 1.346 3 3 3h14c1.654 0 3-1.346 3-3v-26c0-1.654-1.346-3-3-3zM9 2h14c0.552 0 1 0.448 1 1v0 21h-16v-21c0-0.552 0.448-1 1-1v0zM23 30h-14c-0.552 0-1-0.448-1-1v0-3h16v3c0 0.552-0.448 1-1 1v0z"></path>
</symbol>
<symbol id="icon-satellite" viewBox="0 0 30 32">
<path d="M29.859 22.098l-8.443-8.505 0.937-4.616c0.225 0.090 0.485 0.144 0.758 0.146h0.007c0.008 0 0.017 0 0.026 0 1.192 0 2.159-0.967 2.159-2.159s-0.967-2.159-2.159-2.159c-1.192 0-2.159 0.967-2.159 2.159 0 0.259 0.046 0.508 0.13 0.739l-0.005-0.015-4.96 0.606-8.091-8.133c-0.096-0.098-0.229-0.159-0.376-0.16h-0c-0.14 0.001-0.274 0.057-0.373 0.155l-1.512 1.504c-0.096 0.097-0.156 0.23-0.156 0.377s0.060 0.281 0.156 0.377v0l0.814 0.825c-1.143 2.062-1.816 4.522-1.816 7.139 0 4.106 1.656 7.824 4.336 10.525l-0.001-0.001c0.043 0.041 0.092 0.074 0.146 0.097-0.032 0.164-0.051 0.353-0.052 0.546v6.188h-6.4c-1.472 0.001-2.666 1.194-2.667 2.666v1.067c0 0.295 0.239 0.534 0.534 0.534h24.534c0.294 0 0.533-0.239 0.533-0.534v-1.067c-0.002-1.472-1.195-2.665-2.666-2.666h-6.4v-2.742c1.003 0.21 2.024 0.317 3.049 0.32 2.58-0.003 5.005-0.663 7.117-1.822l-0.077 0.039 0.818 0.823c0.099 0.101 0.235 0.159 0.376 0.16 0.14-0.001 0.274-0.057 0.373-0.155l1.512-1.504c0.096-0.097 0.156-0.23 0.156-0.377s-0.060-0.281-0.156-0.377v0zM22.366 6.233c0.193-0.192 0.459-0.31 0.752-0.31 0.589 0 1.067 0.478 1.067 1.066s-0.477 1.066-1.067 1.066c-0 0-0 0-0 0h-0.004c-0.587-0.003-1.061-0.479-1.061-1.066 0-0.295 0.12-0.563 0.314-0.756l0-0h-0.002zM21.11 9.737l-0.598 2.946-1.175-1.183 1.774-1.763zM20.504 8.835l-1.92 1.909-1.486-1.493 3.406-0.416zM23.090 28.8c0.884 0 1.6 0.716 1.6 1.6v0 0.534h-23.466v-0.534c0-0.884 0.716-1.6 1.6-1.6v0h20.267zM15.623 26.666v1.067h-5.334v-1.067h5.334zM10.29 25.6v-4.053c0-1.294 1.196-2.346 2.666-2.346s2.667 1.053 2.667 2.346v4.053h-5.333zM16.69 23.904v-2.357c0-1.882-1.675-3.413-3.733-3.413-0.017-0-0.038-0-0.058-0-1.353 0-2.54 0.707-3.213 1.771l-0.009 0.016c-2.36-2.482-3.812-5.846-3.812-9.55 0-2.314 0.567-4.496 1.569-6.414l-0.036 0.077 18.602 18.709c-1.823 0.947-3.979 1.502-6.266 1.502-1.079 0-2.128-0.124-3.136-0.357l0.093 0.018zM27.979 23.22l-21.057-21.181 0.754-0.752 7.935 7.98c0.004 0 0.006 0.007 0.010 0.010l13.115 13.191-0.757 0.752z"></path>
</symbol>
<symbol id="icon-twitter" viewBox="0 0 32 32">
<path fill="#afb1b8" style="fill: var(--color1, #afb1b8)" d="M32 6.078c-1.1 0.493-2.376 0.857-3.713 1.028l-0.068 0.007c1.36-0.817 2.382-2.078 2.873-3.579l0.013-0.046c-1.197 0.722-2.591 1.273-4.076 1.573l-0.084 0.014c-1.2-1.279-2.9-2.076-4.787-2.076-3.622 0-6.558 2.936-6.558 6.558 0 0.001 0 0.003 0 0.004v-0c0 0.52 0.043 1.021 0.152 1.496-5.454-0.266-10.28-2.88-13.522-6.861-0.564 0.949-0.899 2.092-0.902 3.313v0.001c0 2.272 1.171 4.286 2.914 5.453-1.091-0.030-2.107-0.325-2.994-0.823l0.033 0.017v0.072c0.004 3.164 2.237 5.804 5.213 6.437l0.043 0.008c-0.5 0.137-1.075 0.216-1.668 0.216-0.018 0-0.036-0-0.055-0l0.003 0c-0.419 0-0.843-0.024-1.242-0.112 0.85 2.598 3.261 4.509 6.13 4.57-2.215 1.746-5.045 2.8-8.122 2.8-0.004 0-0.008 0-0.013 0h0.001c-0.018 0-0.040 0-0.062 0-0.531 0-1.055-0.034-1.569-0.099l0.061 0.006c2.826 1.846 6.287 2.944 10.004 2.944 0.021 0 0.042-0 0.063-0h-0.003c12.072 0 18.672-10 18.672-18.669 0-0.288-0.010-0.57-0.024-0.848 1.299-0.936 2.39-2.064 3.258-3.355l0.030-0.047z"></path>
</symbol>
<symbol id="icon-watch" viewBox="0 0 31 32">
<path d="M30.839 15.301c-0.001-8.452-6.855-15.303-15.308-15.301s-15.303 6.855-15.301 15.308c0.002 6.788 4.422 12.543 10.541 14.545l0.108 0.031c0.061 0.019 0.123 0.029 0.187 0.029 0.12 0 0.238-0.032 0.342-0.094 0.135-0.080 0.236-0.207 0.283-0.357l3.865-12.25c1.054-0.004 1.906-0.859 1.906-1.913 0-1.056-0.856-1.913-1.913-1.913-0.303 0-0.59 0.071-0.845 0.196l0.011-0.005-5.106-5.107c-0.114-0.11-0.271-0.179-0.443-0.179-0.352 0-0.638 0.286-0.638 0.638 0 0.172 0.068 0.328 0.179 0.443l-0-0 5.103 5.109c-0.121 0.241-0.191 0.525-0.191 0.825 0 0.602 0.283 1.137 0.724 1.481l0.004 0.003-3.683 11.673c-7.278-2.681-11.004-10.754-8.324-18.032s10.754-11.004 18.032-8.323c7.278 2.681 11.004 10.754 8.323 18.032-1.345 3.581-4.003 6.406-7.374 7.938l-0.088 0.036-0.398-1.874c-0.063-0.291-0.318-0.506-0.624-0.506-0.164 0-0.313 0.062-0.426 0.163l0.001-0.001-3.837 3.426c-0.132 0.117-0.214 0.287-0.214 0.477 0 0.283 0.185 0.524 0.441 0.606l0.005 0.001 4.899 1.563c0.058 0.020 0.126 0.031 0.196 0.031 0.352 0 0.637-0.285 0.637-0.637 0-0.047-0.005-0.093-0.015-0.138l0.001 0.004-0.391-1.839c5.528-2.374 9.328-7.772 9.328-14.057 0-0.011 0-0.023-0-0.034v0.002zM15.535 14.664c0.352 0 0.638 0.286 0.638 0.638s-0.286 0.638-0.638 0.638v0c-0.352 0-0.638-0.286-0.638-0.638s0.286-0.638 0.638-0.638v0zM17.635 29.528l2.184-1.948 0.603 2.84-2.787-0.892z"></path>
</symbol>
</defs>
</svg>
